<?xml version="1.0" standalone="no"?>
<!DOCTYPE svg PUBLIC "-//W3C//DTD SVG 20010904//EN"
 "http://www.w3.org/TR/2001/REC-SVG-20010904/DTD/svg10.dtd">
<svg version="1.0" xmlns="http://www.w3.org/2000/svg"
 width="560.000000pt" height="315.000000pt" viewBox="0 0 560.000000 315.000000"
 preserveAspectRatio="xMidYMid meet">

<g transform="translate(0.000000,315.000000) scale(0.100000,-0.100000)"
fill="#000000" stroke="none">
<path d="M1230 2974 c0 -17 22 -14 28 4 2 7 -3 12 -12 12 -9 0 -16 -7 -16 -16z"/>
<path d="M3223 2677 c-13 -33 -23 -65 -23 -72 0 -7 -4 -15 -8 -17 -7 -3 -184
-528 -186 -553 -2 -15 187 -6 314 16 107 18 230 46 237 53 2 1 -6 11 -17 21
-11 10 -20 29 -20 42 0 22 -2 23 -85 23 -63 0 -92 -4 -111 -16 -30 -20 -35
-16 -50 44 -8 32 -9 49 -2 53 7 5 3 18 -11 38 -12 17 -20 31 -16 31 3 0 0 10
-7 23 -25 47 -28 128 -7 216 11 46 19 100 17 120 l-3 36 -22 -58z"/>
<path d="M4993 2663 c-15 -25 -16 -62 -4 -82 8 -12 11 -10 16 11 4 14 5 40 3
59 -3 33 -4 33 -15 12z"/>
<path d="M4425 2650 c-3 -5 -2 -10 4 -10 5 0 13 5 16 10 3 6 2 10 -4 10 -5 0
-13 -4 -16 -10z"/>
<path d="M4321 2533 c-14 -13 -42 -25 -70 -28 -59 -9 -150 -35 -178 -53 -25
-15 -21 -38 8 -45 34 -9 20 -26 -26 -33 -35 -5 -50 -3 -64 10 -10 9 -23 16
-30 16 -8 0 -11 8 -8 20 4 16 -2 22 -34 30 -21 6 -41 15 -44 20 -3 6 -17 10
-30 10 -26 0 -38 -27 -51 -115 -4 -26 -17 -50 -35 -67 -16 -15 -29 -33 -29
-41 0 -8 -12 -26 -27 -41 -23 -23 -25 -29 -13 -37 11 -8 10 -9 -7 -4 -16 4
-25 0 -33 -15 -6 -11 -17 -20 -25 -20 -7 0 -17 -5 -21 -11 -5 -9 31 -10 142
-5 123 6 155 11 182 28 17 11 32 24 32 29 0 6 20 19 45 30 27 12 58 37 77 63
18 24 53 57 78 74 91 63 209 192 188 206 -1 1 -14 -8 -27 -21z"/>
<path d="M4750 2503 c1 -10 10 -34 20 -53 11 -19 22 -43 26 -52 3 -10 14 -20
23 -23 33 -12 81 -115 52 -115 -4 0 -25 14 -46 30 -22 17 -50 30 -66 30 -25 0
-117 -19 -128 -27 -10 -7 44 -125 62 -135 57 -30 145 -127 130 -142 -14 -14
-44 -4 -59 19 -9 14 -20 25 -25 25 -4 0 -23 15 -41 33 -40 41 -168 102 -195
93 -10 -3 -23 -21 -28 -39 -8 -27 -5 -42 19 -92 15 -33 33 -63 39 -67 6 -4 9
-10 5 -13 -3 -3 -41 12 -83 35 -43 22 -84 40 -90 40 -17 0 -55 -44 -55 -63 0
-24 -15 -28 -62 -17 -24 6 -54 12 -68 14 -14 2 -41 7 -60 11 -27 5 -39 3 -49
-9 -7 -9 -19 -16 -27 -16 -7 0 -17 -7 -21 -15 -7 -11 -16 -13 -39 -6 -22 6
-33 4 -44 -7 -9 -11 -15 -12 -18 -4 -4 13 -44 16 -56 5 -4 -4 -19 -8 -34 -10
-52 -6 -72 -13 -72 -27 0 -7 -7 -19 -15 -26 -13 -10 -19 -10 -33 4 -10 9 -32
16 -48 16 -24 0 -29 -4 -30 -24 -2 -21 5 -26 42 -35 50 -13 95 -15 77 -3 -7 4
-9 13 -5 19 5 8 11 7 20 -3 7 -8 9 -14 5 -15 -24 -2 38 -18 73 -18 34 -1 45 4
58 24 13 20 20 23 40 15 13 -5 53 -12 88 -15 34 -4 95 -15 133 -25 39 -10 122
-23 185 -29 63 -6 142 -14 175 -20 33 -5 86 -12 119 -15 32 -3 91 -15 130 -26
85 -23 128 -30 221 -35 39 -2 88 -9 110 -14 22 -6 71 -11 108 -11 64 0 67 1
57 19 -17 33 -11 64 21 111 28 41 29 45 13 57 -10 7 -27 13 -39 13 -34 0 -62
39 -79 110 -22 87 -30 104 -75 158 -21 26 -41 58 -44 72 -3 14 -20 66 -37 116
-30 85 -35 92 -64 98 -17 4 -48 20 -69 37 -31 25 -45 30 -80 27 -33 -2 -42 1
-45 15 -4 22 -22 22 -22 0z m273 -311 c32 -33 28 -62 -9 -62 -16 0 -28 10 -39
31 -31 59 2 79 48 31z m-463 -252 c0 -5 -2 -10 -4 -10 -3 0 -8 5 -11 10 -3 6
-1 10 4 10 6 0 11 -4 11 -10z m-200 -75 c0 -8 -9 -15 -20 -15 -17 0 -19 2 -8
15 17 19 28 19 28 0z m-483 -21 c-3 -3 -12 -4 -19 -1 -8 3 -5 6 6 6 11 1 17
-2 13 -5z"/>
<path d="M679 2384 c-10 -12 -14 -47 -14 -126 0 -86 -3 -111 -15 -118 -24 -15
-123 -12 -147 5 -34 24 -39 2 -13 -60 5 -11 19 -51 30 -90 33 -106 32 -103 40
-75 26 91 69 130 157 141 144 19 156 25 126 58 -58 64 -77 115 -68 188 7 66 1
76 -51 87 -23 5 -35 2 -45 -10z"/>
<path d="M2283 2263 c-36 -7 -30 -49 10 -73 37 -23 73 -27 60 -7 -4 6 -8 14
-9 17 -1 3 -5 20 -9 38 -4 17 -13 31 -19 31 -6 -1 -21 -4 -33 -6z"/>
<path d="M2516 2175 c-3 -8 -13 -15 -23 -15 -28 -1 -63 -24 -55 -36 13 -20 96
-57 100 -45 6 17 20 13 18 -5 0 -9 6 -19 14 -21 13 -4 13 -3 0 6 -13 9 -13 12
-1 20 11 7 10 13 -8 32 -11 12 -21 19 -22 13 -1 -5 -4 2 -8 16 -4 14 -3 31 2
38 6 8 6 12 -1 12 -5 0 -12 -7 -16 -15z"/>
<path d="M12 2048 c-8 -8 -12 -45 -12 -105 l0 -93 39 0 c60 0 71 7 71 49 -1
36 -56 151 -76 158 -5 2 -15 -2 -22 -9z"/>
<path d="M5406 1958 c-21 -11 -40 -17 -43 -15 -8 8 -43 -26 -43 -41 0 -10 7
-12 28 -7 57 14 139 25 195 25 57 0 57 0 57 31 l0 30 -78 -2 c-55 -1 -90 -8
-116 -21z"/>
<path d="M2085 1930 c-11 -5 -42 -32 -70 -61 -58 -60 -181 -154 -228 -174 -18
-7 -45 -25 -60 -39 -15 -14 -27 -22 -27 -18 0 7 140 145 210 207 26 23 30 31
17 33 -20 4 -155 -28 -292 -70 -95 -29 -103 -34 -158 -92 -57 -59 -156 -200
-180 -254 -6 -15 -31 -50 -54 -78 -48 -57 -52 -73 -23 -92 11 -7 20 -19 20
-28 0 -8 12 -26 28 -39 l27 -25 -22 -6 c-13 -3 -23 -10 -23 -14 0 -15 34 -20
83 -14 41 4 52 2 78 -20 17 -14 36 -23 45 -19 10 4 17 -1 20 -15 4 -12 12 -18
22 -16 10 2 24 0 32 -6 13 -9 13 -11 0 -21 -12 -8 -9 -9 11 -5 16 3 33 0 45
-10 18 -14 18 -15 -6 -8 -28 7 -27 5 13 -19 16 -10 26 -13 25 -6 -2 7 14 13
39 16 24 2 62 8 85 13 33 7 23 8 -42 4 -90 -6 -102 6 -25 25 l40 10 -47 -5
c-51 -5 -74 10 -36 25 l23 10 -22 0 c-13 1 -23 6 -23 12 0 5 -16 17 -35 25
-19 8 -35 18 -35 23 0 4 11 23 25 42 13 19 37 52 52 74 15 22 37 46 48 54 11
8 56 49 100 91 80 76 167 130 209 130 25 0 64 38 125 122 37 51 47 59 99 74
111 31 247 80 249 90 4 27 -19 36 -128 48 -63 7 -127 18 -142 25 -33 13 -64
13 -92 1z m-408 -337 c2 -6 -15 -34 -39 -61 -63 -72 -140 -171 -163 -207 -54
-87 -106 -145 -129 -145 -46 0 -49 23 -7 64 31 30 43 54 61 115 20 71 28 84
103 165 81 86 82 87 126 84 24 -2 46 -8 48 -15z"/>
<path d="M2700 1920 c12 -8 10 -10 -10 -10 -14 -1 -41 -9 -60 -20 -34 -19 -35
-19 -8 -20 22 0 134 47 118 50 -44 9 -54 9 -40 0z"/>
<path d="M2750 1884 c-69 -23 -143 -39 -289 -64 -29 -5 -68 -18 -87 -29 -25
-15 -146 -41 -190 -41 -12 0 -62 -63 -58 -74 3 -7 -21 -39 -53 -72 -65 -65
-123 -137 -123 -150 0 -5 -14 -24 -31 -42 -26 -28 -31 -41 -36 -105 -3 -39
-14 -96 -24 -125 -10 -29 -19 -64 -19 -77 0 -20 -5 -25 -24 -25 -14 0 -28 5
-31 10 -3 6 -12 10 -18 10 -7 0 2 -9 18 -20 18 -12 39 -18 53 -15 12 3 22 1
22 -5 0 -6 -5 -8 -12 -4 -7 4 -8 3 -4 -5 9 -14 -4 -19 -79 -30 l-60 -9 82 2
c44 0 76 4 70 8 -6 4 -9 10 -6 13 4 3 55 -18 115 -46 131 -62 96 -61 473 -14
180 23 464 18 504 -7 33 -23 72 -22 282 2 220 26 868 106 1059 131 205 26 196
27 196 -20 0 -48 2 -47 -165 -71 -71 -11 -157 -24 -190 -30 -33 -5 -98 -15
-145 -20 -47 -5 -137 -17 -200 -25 -110 -15 -547 -73 -715 -95 -185 -24 -582
-71 -610 -73 -22 -1 -29 2 -26 13 2 8 4 24 5 35 1 26 -33 27 -48 2 -9 -15 -7
-21 8 -32 25 -19 20 -23 -47 -36 -67 -12 -77 -8 -77 31 0 16 -5 32 -10 35 -14
9 -161 -15 -178 -28 -8 -6 -12 -21 -9 -34 5 -26 -6 -37 -46 -47 -35 -8 -57 7
-50 35 8 28 -14 40 -57 33 -69 -11 -73 -14 -66 -44 7 -37 -12 -52 -61 -48 -35
3 -38 5 -35 31 3 26 2 27 -42 27 -67 0 -98 -14 -91 -43 8 -32 -15 -49 -62 -45
-33 3 -38 6 -41 32 -3 25 -7 27 -30 22 -15 -3 -51 -9 -80 -12 -43 -6 -52 -10
-47 -23 5 -13 4 -14 -6 -3 -14 13 -67 16 -85 4 -6 -4 -14 -19 -17 -33 -8 -31
-24 -37 -129 -46 -67 -5 -78 -4 -84 11 -3 9 -1 23 6 30 9 12 7 17 -9 25 -11 6
-32 11 -46 11 -21 0 -26 -4 -21 -16 3 -9 6 -19 6 -24 0 -4 14 -13 31 -19 29
-10 30 -13 24 -50 -6 -34 -3 -41 15 -51 78 -42 283 -61 435 -41 50 7 124 16
165 21 41 5 143 19 225 30 83 11 200 27 260 35 61 7 219 30 353 49 156 23 283
36 355 37 61 0 120 5 130 11 10 5 73 18 140 29 67 10 136 21 152 24 84 14 168
28 355 56 113 17 219 32 235 34 63 9 111 16 155 25 25 4 92 16 150 25 58 9
122 21 143 26 21 6 69 13 105 16 l67 5 15 -43 c13 -38 19 -44 45 -46 48 -3 78
6 71 22 -12 32 58 11 73 -22 11 -24 14 -25 90 -22 134 7 122 29 -31 55 -54 10
-98 21 -98 26 0 4 -8 8 -17 8 -24 1 -111 41 -98 46 6 2 60 12 120 23 127 21
124 22 308 -70 56 -28 142 -67 192 -86 49 -20 117 -49 150 -66 74 -37 172 -74
229 -87 23 -5 50 -12 59 -16 16 -6 17 29 17 465 l0 470 -30 16 c-39 20 -40 20
-40 -12 0 -17 -3 -23 -8 -16 -9 15 -92 34 -92 22 0 -5 -7 -9 -15 -9 -12 0 -15
-18 -15 -104 0 -99 -11 -140 -27 -100 -6 16 -7 16 -14 -2 -7 -17 -8 -17 -8 3
-1 15 -6 21 -15 17 -21 -8 -32 21 -39 96 -3 36 -11 78 -17 94 -9 23 -13 26
-25 16 -8 -7 -15 -8 -15 -2 0 5 -11 10 -24 10 -13 0 -33 9 -45 21 l-22 22 -24
-25 c-25 -27 -55 -26 -55 1 0 10 -6 13 -16 9 -9 -3 -18 -6 -20 -6 -3 0 0 -10
7 -21 14 -26 4 -206 -12 -225 -17 -21 -59 3 -60 35 l-1 26 -7 -25 c-5 -17 -10
5 -15 70 -9 114 -28 157 -69 152 -15 -1 -27 2 -27 8 0 16 -30 12 -36 -5 -10
-24 -24 -18 -35 15 -12 32 -39 41 -39 12 0 -9 -8 -22 -18 -29 -20 -12 -33 -81
-37 -189 -2 -74 -10 -78 -54 -36 l-39 37 -4 117 c-4 113 -11 145 -26 122 -4
-6 -16 -14 -27 -18 -13 -6 -16 -10 -7 -13 10 -4 10 -8 1 -19 -15 -19 -39 -18
-39 1 0 8 -6 15 -14 15 -7 0 -19 7 -26 15 -21 25 -50 19 -50 -10 0 -27 -14
-33 -27 -12 -10 16 -22 -43 -33 -172 -5 -57 -12 -107 -17 -111 -4 -4 -25 -5
-45 -3 -37 5 -38 7 -38 44 0 21 4 39 8 39 13 0 7 212 -7 248 -7 17 -16 32 -21
32 -4 0 -11 10 -14 23 -6 20 -7 21 -17 4 -6 -9 -7 -26 -4 -37 7 -22 -20 -29
-28 -7 -3 6 -6 -3 -6 -22 -1 -27 -4 -32 -18 -26 -10 4 -37 9 -60 11 l-42 4
-11 -42 c-19 -78 -45 -158 -51 -158 -3 0 -6 -13 -7 -30 -1 -42 -9 -51 -43 -48
-38 3 -43 21 -30 111 6 39 13 107 17 149 l6 76 -29 16 c-25 12 -34 13 -54 2
-37 -19 -68 -25 -75 -15 -3 5 -19 9 -35 9 -17 0 -28 4 -24 10 7 11 -12 16
-120 29 -44 5 -100 19 -125 30 -25 11 -108 29 -185 41 -118 18 -266 49 -364
76 -18 5 -22 4 -16 -5 6 -10 3 -11 -13 -2 -28 15 -35 14 -122 -15z m52 -150
c90 -36 151 -69 156 -83 2 -7 -12 -3 -33 9 -20 11 -58 23 -83 27 -26 3 -64 17
-84 30 -21 12 -46 23 -55 23 -16 0 -226 -145 -292 -201 -13 -11 -26 -17 -29
-15 -11 11 31 56 104 112 109 84 108 83 102 90 -3 3 -35 -1 -70 -10 -34 -8
-90 -20 -122 -26 -33 -5 -70 -17 -82 -25 -12 -8 -56 -56 -98 -107 -41 -51 -91
-111 -111 -133 l-36 -40 23 44 c13 25 46 70 73 100 28 31 63 74 79 96 44 61
65 73 136 80 36 4 90 13 121 21 31 8 70 14 85 14 16 1 40 7 54 15 32 19 79 13
162 -21z m1595 -156 c-3 -8 -6 -5 -6 6 -1 11 2 17 5 13 3 -3 4 -12 1 -19z
m143 7 c0 -8 -7 -15 -15 -15 -16 0 -20 12 -8 23 11 12 23 8 23 -8z m70 -243
c0 -10 11 -29 25 -44 21 -23 25 -37 25 -87 0 -33 -3 -66 -6 -75 -8 -20 -34
-21 -34 -1 0 8 -9 15 -20 15 -11 0 -20 6 -21 13 -3 62 0 187 6 196 9 15 25 4
25 -17z m-2348 -86 c5 -24 -6 -38 -50 -63 -34 -20 -43 -16 -31 15 9 24 55 71
70 72 4 0 9 -11 11 -24z m2718 3 c0 -14 -17 -10 -23 5 -4 10 -1 13 9 9 7 -3
14 -9 14 -14z m-1790 -41 c63 -11 122 -23 130 -26 8 -3 -39 -9 -105 -13 -66
-4 -151 -12 -190 -18 -194 -31 -343 -40 -315 -20 11 8 -11 9 -80 6 -62 -3
-105 -1 -125 7 -16 7 -25 15 -20 18 6 3 66 11 135 18 69 6 181 22 250 35 134
24 143 24 320 -7z m-1020 -72 c0 -3 -4 -8 -10 -11 -5 -3 -10 -1 -10 4 0 6 5
11 10 11 6 0 10 -2 10 -4z m105 -26 c3 -6 -1 -7 -9 -4 -18 7 -21 14 -7 14 6 0
13 -4 16 -10z m2685 -87 c0 -43 -13 -48 -37 -15 -20 28 -36 95 -25 107 13 13
61 -60 62 -92z m-1727 51 c20 -12 -3 -15 -270 -34 -120 -9 -137 -8 -180 9 -31
12 -43 21 -33 25 43 16 455 16 483 0z m-1283 -64 c13 -8 13 -10 -2 -10 -9 0
-20 5 -23 10 -8 13 5 13 25 0z m118 -47 c11 -5 17 -23 7 -23 -2 0 -25 10 -50
22 -54 26 -61 45 -7 22 20 -9 43 -18 50 -21z m315 20 c-7 -2 -19 -2 -25 0 -7
3 -2 5 12 5 14 0 19 -2 13 -5z"/>
<path d="M3497 1893 c-17 -16 -4 -31 32 -37 61 -9 79 2 36 25 -37 20 -57 24
-68 12z"/>
<path d="M1270 1733 c0 -17 29 -31 79 -39 43 -7 63 2 82 37 8 17 3 18 -76 16
-59 -1 -85 -5 -85 -14z"/>
<path d="M4435 1680 c-3 -5 -1 -10 4 -10 6 0 11 5 11 10 0 6 -2 10 -4 10 -3 0
-8 -4 -11 -10z"/>
<path d="M1896 1454 c-18 -19 -26 -37 -26 -62 l0 -36 18 34 c10 19 26 47 36
63 23 34 7 35 -28 1z"/>
<path d="M4280 1406 c0 -9 5 -16 10 -16 6 0 10 4 10 9 0 6 -4 13 -10 16 -5 3
-10 -1 -10 -9z"/>
<path d="M1355 1110 c-3 -5 3 -10 14 -10 11 0 23 5 26 10 3 6 -3 10 -14 10
-11 0 -23 -4 -26 -10z"/>
<path d="M1380 1080 c-23 -7 -22 -8 10 -9 19 0 42 4 50 9 12 8 10 10 -10 9
-14 -1 -36 -5 -50 -9z"/>
<path d="M1445 1050 l-40 -7 47 -2 c26 0 50 4 53 9 7 11 1 11 -60 0z"/>
<path d="M1358 1033 c6 -2 18 -2 25 0 6 3 1 5 -13 5 -14 0 -19 -2 -12 -5z"/>
<path d="M1315 1020 c4 -6 11 -8 16 -5 14 9 11 15 -7 15 -8 0 -12 -5 -9 -10z"/>
<path d="M1150 1009 c0 -5 5 -7 10 -4 6 3 10 8 10 11 0 2 -4 4 -10 4 -5 0 -10
-5 -10 -11z"/>
<path d="M1475 1010 c-27 -7 -28 -8 -5 -8 14 -1 43 3 65 7 l40 9 -35 0 c-19 0
-48 -4 -65 -8z"/>
<path d="M1650 1000 c0 -5 5 -10 10 -10 6 0 10 5 10 10 0 6 -4 10 -10 10 -5 0
-10 -4 -10 -10z"/>
<path d="M1862 1001 c-10 -6 -6 -11 17 -19 17 -6 37 -17 45 -24 12 -11 11 -15
-8 -25 -18 -11 -14 -12 34 -12 87 -1 90 11 11 52 -76 40 -79 41 -99 28z"/>
<path d="M1370 990 c0 -5 4 -10 9 -10 6 0 13 5 16 10 3 6 -1 10 -9 10 -9 0
-16 -4 -16 -10z"/>
<path d="M900 903 c0 -16 72 -83 89 -83 11 0 7 9 -14 28 -61 55 -75 65 -75 55z"/>
<path d="M4110 790 c-42 -9 -213 -39 -255 -45 -16 -2 -149 -25 -295 -50 -146
-25 -292 -50 -325 -55 -161 -25 -219 -41 -274 -75 -31 -19 -81 -43 -113 -55
-55 -20 -87 -44 -71 -53 4 -2 60 -17 123 -31 63 -15 154 -38 201 -52 91 -25
209 -31 299 -14 202 38 292 57 400 87 110 31 221 53 411 82 32 5 67 15 80 21
13 8 79 15 158 17 109 4 141 8 161 23 30 21 79 33 134 34 37 1 70 26 54 42 -4
3 -44 10 -89 15 -53 6 -90 16 -102 26 -10 10 -41 20 -70 24 -115 16 -235 39
-282 53 -53 17 -89 18 -145 6z"/>
<path d="M5016 513 c-16 -8 -93 -31 -170 -49 -78 -19 -157 -38 -176 -43 -19
-5 -66 -16 -105 -25 -38 -8 -117 -26 -175 -40 -58 -14 -116 -27 -130 -29 -139
-24 -253 -59 -297 -91 -50 -36 -81 -44 -124 -32 -19 5 -35 1 -62 -16 -20 -13
-36 -26 -37 -30 0 -9 61 0 127 18 28 8 61 14 72 14 12 0 29 4 39 9 9 5 51 16
92 25 41 10 86 21 100 26 14 5 36 11 50 12 14 2 30 6 35 10 6 3 26 9 45 13 19
3 170 40 335 80 165 40 320 76 345 80 90 13 120 25 120 45 0 18 -27 41 -47 40
-4 -1 -21 -8 -37 -17z"/>
<path d="M3465 154 c-33 -8 -82 -17 -110 -21 -27 -3 -56 -10 -62 -15 -9 -7
-15 -5 -19 6 -4 10 -18 16 -38 16 -24 0 -27 -3 -16 -10 13 -8 13 -10 0 -10
-30 0 29 -30 72 -36 46 -6 293 39 315 58 36 30 -40 36 -142 12z"/>
<path d="M3170 126 c0 -2 7 -6 15 -10 8 -3 15 -1 15 4 0 6 -7 10 -15 10 -8 0
-15 -2 -15 -4z"/>
</g>
</svg>
